<svg xmlns="http://www.w3.org/2000/svg" class="we-build-beautiful" viewBox="0 0 242.58 47.79"><defs><style>.ee{fill:#fff;stroke-width:0px;}</style></defs><g id="cc"><g id="dd"><path class="ee" d="m23.24,19.05c-1.49,2.12-2.45,4.56-2.45,6.19,0,.76.39,2.47,1.88,3.56.82.6,1.82.9,3,.9.88,0,1.85-.17,2.91-.5.72-.26,1.77-.93,2.14-1.17.41-.24.71-.49,1.01-.74.14-.12.28-.23.42-.35h0c1.08-.88,2.38-2.14,2.38-3.14,0-.41-.39-.63-.66-.63h-.07l-.04.05c-.93,1.05-6.69,4.67-8.63,4.67-1.67,0-1.8-1.66-1.8-2.17,0-.21.09-.96.25-1.45.49.39,1.09.81,1.49.81.76,0,4.23-3.55,4.54-4.09.07-.13.16-.26.24-.41.52-.85,1.22-2.02,1.22-3.15,0-.62-1.06-1.72-2.02-1.9-.27-.05-.67-.12-1.05-.12-1.4,0-3.18,1.36-4.77,3.63h.01Zm4.99-1.39c.08-.03.13-.04.17-.05-.05,1.5-2.85,4.09-4.22,4.86.05-.15.13-.34.24-.51.08-.19.16-.38.3-.57,1.19-1.93,2.75-3.44,3.52-3.73h-.01Z"/><path class="ee" d="m61.75,27.54c.41.64,1.91,1.55,3.72.85l.04-.03c.23-.2,2.21-1.88,3.52-3.53.04.4.12.76.19,1.12l.07.35c.23,1.14,1.86,2.55,2.94,2.55.28,0,.39,0,.95-.21,1.1-.33,2.14-1.8,2.52-2.52.24.67.6,1.31,1.07,1.82.72.78,1.62,1.21,2.6,1.24h.07c1,0,2.93-1.76,3.15-1.96h0s.6-.62,1.27-1.36c.53,1.44,1.44,2.44,1.44,2.45.52.6,1.87,1.52,2.56,1.52,1.03-.07,2.34-.79,3.65-1.99.62.7,1.47,1.23,2.28,1.23,1.68,0,3.62-2.3,4.9-3.83.14-.17.28-.33.4-.47.02,1.48.44,2.65,1.25,3.49.84.87,1.86,1.1,2.33,1.1h.48c.1,0,.18,0,.26-.02,1.45-.25,3.73-1.99,4.99-3.79h0c.25-.46.47-.8.67-1.1.41-.62.68-1.02.68-1.62,0-.35-.24-.74-.76-.77h-.08l-.05.06c-1.64,2.19-4.72,5.2-6.04,5.2h-.03c-.56-.09-.91-.99-.95-2.49-.14-4.77,4.11-12.97,5.5-15.66.4-.76.41-.79.41-.85,0-.69-1.29-1.31-1.9-1.31-.7,0-1.19,1.43-1.63,2.7-.14.4-.27.77-.37,1.01-.25.54-.45,1.06-.63,1.52-.09.24-.17.45-.25.63-.24.53-.49,1.15-.72,1.75-.26.67-.51,1.3-.74,1.77-.72-.66-1.17-.78-2.02-.78-.73,0-1.34.04-2.12.59-1.37.94-6.78,6.78-6.8,9.59-1.21,1.02-2.44,1.84-3.16,1.84-.85,0-1.24-2.74-1.24-3.44,0-1.31.45-3.47.88-4.19.57-.88,1.48-1.95,2.15-2.73.32-.37.57-.67.71-.85.1-.14.22-.29.35-.47,1.12-1.48,3.19-4.24,3.19-7.06,0-1.1-1.46-1.87-2.24-1.87h-.04l-.04.02c-.41.25-2.17,2.84-3.02,4.55l-.24.46c-1.59,2.95-4.22,7.85-4.34,11.58-1.67,1.31-4.24,3.22-5.13,3.22h-.05c-.1,0-.19-.03-.25-.1-.23-.24-.23-.85-.22-1.18v-.12c.07-1.37,1.86-5.03,2.54-6.41.18-.36.25-.51.26-.59v-.06c-.08-.52-1.22-1.45-1.8-1.45-.13,0-.29.05-.44.18-.88.79-2.2,4.43-2.76,6.19-.27.27-.52.53-.66.69l-.14.14c-1.5,1.52-2.53,2.4-3.08,2.63-.19-.19-.35-1.02-.35-1.25,0-2.26,1.25-4.97,2.42-7.35.03-.06.07-.12.1-.19.09-.14.19-.3.19-.49,0-.26-1.3-1.2-1.65-1.2-.32,0-.71.15-.82.49-.33,1.44-6.6,10.01-8.11,10.01-.03,0-.11-.05-.11-.53,0-1.26.61-3.8,3.51-8.81.11-.19.16-.3.16-.33,0-.59-1.31-1.34-1.93-1.34-.29,0-.41,0-.46.24-.05.34-.5,1.21-.8,1.78-.16.32-.28.54-.32.64l-.17.36c-.91,1.95-2.28,4.89-2.28,7.03,0,.29.24,1.23.56,1.69v.02Zm38.09-9.58c.06-.01.23-.01.31,0,.05,0,.09.04.13.09.11.16.12.46.09.61-.26,1.28-5.11,7.9-6.9,8.34h-.31c-.05-.07-.05-.25-.05-.39,0-2.76,4.83-8.22,6.73-8.65h0Zm-9.8-5.16h0c.43-.76.91-1.58,1.53-2.56.08.37.01.77-.21,1.28-.38.98-1.5,2.57-2.1,3.35-.27.34-.53.69-.76.99-.11.15-.23.3-.34.45.45-1.01,1.22-2.37,1.88-3.51Z"/><path class="ee" d="m81.51,14h.06c.41,0,.56-.48.67-.84.02-.07.04-.14.06-.19h0c.23-.71.73-1.22,1.09-1.59.3-.3.52-.52.52-.76,0-.28-.16-.54-.43-.7-.14-.08-.41-.2-.84-.2s-.98.1-1.72.48c-.53.27-1.17.88-1.26,1.72,0,.25,1.16,2.07,1.85,2.07h0Z"/><path class="ee" d="m116.5,26.76c.55.06,1.06-.39,1.51-1.36.41-.87.82-1.87,1.26-2.92.69-1.66,1.4-3.37,2.13-4.69.26.36.5.54.72.54.16,0,.54-.07,2.09-.69,1.14-.44,2.14-.67,3-.67,1.35,0,2.6.21,3.74.61,1.7.58,2.53,1.42,2.53,2.57,0,1-.82,2.14-2.52,3.5-1.37,1.12-3.05,2.16-5.15,3.18-2.19,1.05-3.49,1.29-3.94,1.35-.64.08-1.17-.02-1.47-.26-.16-.13-.26-.3-.28-.49-.15-1.32.76-2.77,2.72-4.31.27-.21.34-.44.36-.59.02-.19-.03-.38-.14-.52-.1-.13-.34-.3-.81-.04-1.42.82-2.33,1.76-2.9,2.41-2.16,2.63-1.18,4.75-.62,5.34.53.62,1.2.93,1.98.93,1.19,0,3.01-.57,5.38-1.68,2.61-1.24,4.81-2.64,6.51-4.18,2.14-1.91,3.22-3.77,3.22-5.54,0-.99-.42-1.81-1.27-2.52h0c-.64-.5-1.55-.96-2.7-1.38-.42-.13-.85-.26-1.27-.39-.32-.1-.63-.19-.94-.29.77-.59,1.54-1.19,2.29-1.78,1.35-1.17,2-2.16,2-3.03,0-1.04-.64-1.94-1.97-2.73-1.1-.67-2.62-1.03-4.64-1.11-1.12-.05-2.2-.05-3.2,0h0l-.38.02c-.19,0-.35.02-.48.03-.05,0-.1,0-.15.01l-.23.02c-.06,0-.12,0-.18.01l-.14.02h0c-.27.04-.55.08-.84.12h-.09c-.52.1-1.05.18-1.58.31-1.19.24-3.17.79-3.17,1.76,0,1.39,3.44,2.04,3.66,2.04.25,0,.42-.07.52-.2.1-.14.12-.33.04-.58v-.04l-.05-.03c-.09-.07-.16-.13-.23-.18-.15-.11-.24-.18-.31-.29.35-.51,1.07-.88,2.14-1.08.24-.05.52-.09.78-.09.64,0,.75.08.76.09.06.08.05.09-.01.2-.92,1.5-1.85,3.26-2.78,5.22-.04.07-3.58,7.54-4.15,8.56-.35.61-1.4,2.48-1.6,3.32-.08.32-.12.78.11,1.12.16.22.41.35.74.39h0Zm8.13-15.35c1.6-2.84,2.01-3.48,2.11-3.63.77.01,1.69.21,2.74.58,1.42.51,2.13,1.15,2.11,1.89-.02.3-.38,1.03-2.68,2.57-1.54,1.04-2.6,1.59-3.31,1.73-1.1.22-2.53.78-3.27,1.12.22-.52.96-1.89,2.3-4.26h0Z"/><path class="ee" d="m189.99,14.03h.06c.38,0,.52-.44.63-.76.03-.09.06-.18.09-.24.39-.43,1.5-.72,2.24-.92.26-.07.49-.13.65-.18h0c.13-.05.35-.09.6-.15.92-.2,1.57-.36,1.57-.76v-.05l-.03-.04c-.39-.58-.65-.66-2.61-.8h-.58c-.57,0-1.1.06-1.34.09-.25.03-3.02.72-3.13,1.73,0,.2,1.16,2.07,1.85,2.07h0Z"/><path class="ee" d="m43.03,25.43h.04c.09.03.17.03.26.04-1.28,2.2-.47,3.9.02,4.42.54.63,1.58.86,2.37.86.46,0,1.07-.11,1.79-.31h.01s.03-.01.05-.02c1.09-.31,2.44-.83,3.94-1.54.37-.18.71-.35,1.04-.52,1.59-.79,3.05-1.67,4.32-2.6,2.03-1.48,3.8-3.58,4.35-4.75.15-.33.27-.95.27-1.28,0-.54-.09-1.36-.88-2.33l-.07-.07c-.4-.42-1.6-1.71-3.87-2.34-.52-.16-1.74-.45-3.19-.62.14-.09.29-.19.45-.29,1.76-1.14,3.95-2.56,3.74-4.44-.21-.59-1.07-1.13-2.36-1.48-1.27-.37-2.51-.52-4.43-.52-.93.03-1.75.06-2.24.11-.44.02-.89.1-1.37.17l-.27.04c-.51.08-1.05.16-1.58.3-1.19.24-3.17.79-3.17,1.76,0,1.39,3.44,2.04,3.66,2.04.25,0,.42-.07.52-.2.1-.14.12-.33.04-.58v-.04l-.05-.03c-.09-.07-.16-.13-.23-.18-.15-.11-.24-.18-.31-.29.44-.64,1.43-.81,2.09-.92.05,0,.1-.02.14-.02l-6.27,14.54v.04c-.11.77.81.97,1.2,1.06h-.01Zm6.9-13.53c.42-1.06.89-2.26,1.13-2.3.14-.02.36-.03.63-.03.97,0,2.55.13,3.08.61.11.1.16.2.16.32,0,.27-.59.96-2.26,2.02-1.25.79-2.58,1.45-3.1,1.54l-.59.11c.35-.76.66-1.56.95-2.27Zm-1.25,9.27c-.1-.13-.35-.3-.81-.04-.92.53-2.06,1.55-2.91,2.39.31-1.08.81-2.4,1.34-3.49.39-.83.93-1.89,1.58-3.06.86-.38,3.08-.9,5.52-.9h.11c.92,0,2.35.26,3.49.81,1.39.67,2.21,1.61,2.21,2.51,0,.72-.44,1.65-1.14,2.45-.41.46-1.25,1.27-2.4,2.16-.07.06-.14.11-.22.17-.7.53-1.51,1.09-2.42,1.62-.56.34-1.86,1.02-3.38,1.69-1.4.54-2.47.77-3.14.86-.64.07-1.16-.02-1.47-.26-.16-.13-.26-.3-.28-.49-.16-1.37,1.76-3.77,3.71-5.3.27-.21.35-.44.37-.6.02-.19-.03-.38-.14-.52h-.02Z"/><path class="ee" d="m242.51,37.4c-.44-.38-4.58-.84-6.76-1.06-4.06-.4-8.41-.74-9.51-.82-11.33-.69-22.61-1.12-33.6-1.38.44-1.32,1.95-5.99,2.45-7.57.21-.66.42-1.33.63-2.01.52-1.71,1.06-3.48,1.77-5.06.94-.28,1.79-.52,2.59-.72.76-.23,1.55-.45,2.19-.62.4-.11.73-.2.96-.27-.1.21-.19.41-.28.6l-.16.35c-.91,1.95-2.28,4.9-2.28,7.04,0,.29.24,1.23.56,1.69.43.67,1.96,1.61,3.72.85.67-.29,2.45-2.13,3.55-3.55.04.44.13.84.21,1.23l.05.23c.33,1.64,1.95,2.55,2.95,2.55.28,0,.39,0,.95-.21,1.09-.33,2.58-2.26,3.07-2.89.03-.04.05-.07.07-.09.52,1.54,1.5,2.62,1.51,2.63.52.6,1.86,1.52,2.56,1.52,2.1-.14,4.99-2.89,6.37-5.36.07-.12.64-1.15.64-1.57,0-.11-.08-.5-.33-.68-.1-.07-.26-.14-.49-.06l-.05.02-.03.05c-.6,1.08-4.9,5.41-6.57,5.41-.85,0-1.24-2.74-1.24-3.44,0-1.32.45-3.47.88-4.19.57-.88,1.48-1.95,2.15-2.73.32-.37.57-.67.71-.85.1-.14.22-.29.35-.47,1.12-1.48,3.19-4.24,3.19-7.06,0-1.1-1.46-1.88-2.24-1.88h-.04l-.04.02c-.41.25-2.17,2.84-3.02,4.55l-.25.46c-1.49,2.78-3.91,7.27-4.3,10.9-.37.37-.74.75-1.06,1.08l-.13.13c-1.5,1.52-2.54,2.41-3.08,2.64-.18-.19-.35-.99-.35-1.25,0-2.25,1.25-4.97,2.42-7.35.03-.06.07-.12.1-.19.09-.14.19-.3.19-.49,0-.26-1.3-1.2-1.65-1.2-.32,0-.71.15-.82.48-.33,1.44-6.6,10.01-8.11,10.01-.02,0-.1-.04-.1-.53,0-1.26.61-3.81,3.52-8.81.11-.19.16-.29.16-.32,0-.59-1.31-1.34-1.93-1.34-.2,0-.29.04-.35.11h-.06l-.04.09c-.03.08-.08.19-.13.28h-.39c-.14,0-.33,0-.45.03-.37,0-3.06.26-4.01.43l-.69.09c-.07.01-.14.02-.2.02.27-1.61,3.75-11.79,4.15-12.59.08-.14.15-.29.23-.45.28-.56.59-1.19,1.06-1.35.31.56.49,1.62.46,2.29,0,.1-.07.25-.13.38-.1.21-.21.45-.15.67l.02.05c.08.11.23.22.51.16l.24-.09c.8-.38,1.07-.66,1.1-1.53.07-.63-.44-2.53-1.35-3.6-.44-.51-.91-.78-1.41-.81h-.06c-1.12,0-2.66,2.58-4.14,6.95-.47,1.64-1.48,4.76-3.17,9.93l-.14.43c-.37.11-1.87.59-2.14,1.19v.06c-.01.46.35.97.66,1.43.17.24.37.53.37.62-.01.12-.18.67-.42,1.46-.1.12-.23.25-.23.25,0,0-.06.04-.13.11-3.39,2.8-5.88,4.45-6.69,4.45h-.04c-.1,0-.19-.03-.25-.1-.23-.24-.23-.85-.22-1.18v-.12c.07-1.36,1.86-5.02,2.53-6.39.18-.37.26-.52.27-.6h0v-.06c-.03-.19-.2-.43-.43-.66.23-.11.41-.23.45-.37l.09-.27c.03-.2,0-.38-.1-.55l-.03-.05-.06-.02c-.63-.17-1.53-.11-2.25-.07-.28.02-.53.03-.73.03-.15,0-.97.08-1.84.17-.79.08-1.68.17-1.81.17-.1,0-.25.02-.42.05-.1.01-.21.03-.3.04l-.21.03,4.32-8.92.02-.07c0-.54-1.17-1.59-1.54-1.59-.6,0-3.07,5.51-3.85,7.68-.19.6-.78,1.73-.84,1.81l-.03.04c-.2.43-.39.8-.59,1.16-.05.1-.11.19-.17.28-.03.04-.05.08-.08.12-.45.16-.96.29-1.45.41-.88.21-1.58.38-1.75.72l-.02.07c0,.93.61,1.6,1.06,2.09.18.2.38.42.38.52s-.03.22-.07.36c-.51.75-1.43,1.62-2.03,2.2-.19.18-.35.33-.47.45-.94.94-2.84,2.6-3.26,2.6h-.03c-.2-.09-.4-.72-.39-1.28,0-2.27,1.25-4.98,2.42-7.35.03-.06.07-.12.11-.19.09-.14.19-.3.19-.49,0-.26-1.3-1.2-1.65-1.2-.32,0-.71.15-.82.49-.33,1.44-6.6,10.01-8.11,10.01-.03,0-.1-.05-.1-.53,0-1.26.61-3.8,3.51-8.81.11-.19.16-.3.16-.33,0-.59-1.31-1.34-1.93-1.34-.23,0-.39.04-.45.2-.17.39-.54,1.18-.83,1.82l-.46,1c-.61,1.32-1.43,3.09-1.9,4.75-.84.88-1.87,1.89-2.7,2.55-.63.48-1.66.99-1.86.99h0c-.09-.01-.18-.53-.13-1.21,0-1.7,1.37-4.28,2.1-5.67l.22-.42c.14-.26.29-.43.46-.62.14-.14.27-.41.02-.83-.2-.34-.53-.4-.81-.46-.13-.03-.25-.05-.37-.09.06-.45-.06-.92-.21-1.16-.18-.27-1.59-1.14-2.02-1.14-1.26,0-2.68,1.29-3.42,2.05-.03.04-3.46,3.62-4.09,4.63-.37.57-.88,1.44-1.21,2.35-2.13,1.42-5.3,3.15-6.64,3.15-1.67,0-1.8-1.66-1.8-2.17,0-.21.09-.97.25-1.45.49.39,1.09.81,1.49.81.76,0,4.23-3.55,4.54-4.08.63-.91,1.47-2.26,1.47-3.56,0-.61-1.12-1.75-2.05-1.9-.34-.05-.76-.11-1.01-.11-1.4,0-3.18,1.36-4.77,3.63-1.49,2.12-2.45,4.56-2.45,6.2,0,.76.39,2.47,1.87,3.56.82.6,1.82.9,3,.9.88,0,1.85-.17,2.91-.5.7-.27,1.82-.97,2.14-1.17.35-.2.61-.42.86-.64.07-.06.14-.11.21-.16.56.77,1.71,1.67,2.2,1.67,1.44,0,3.37-1.65,4.53-2.63.06-.05.12-.1.17-.15.11.71.38,2.13,1.47,2.77.26.16.86.55,1.75.67h.13c.26,0,.42-.12.57-.23l.06-.04c1.06-.75,2.09-1.72,2.88-2.53.1.34.25.72.41.96.42.66,1.93,1.58,3.72.85.45-.18,2.44-2.15,3.56-3.55.04.4.12.77.19,1.12l.07.34c.23,1.15,1.6,2.54,2.94,2.55h.05c.26,0,.45-.02.91-.21.7-.3,1.67-1.16,2.87-2.53,0,.09-.02.18-.02.28,0,.47.35,2.01,1.02,2.34l.22.09s.09.02.16.02c.11,0,.26-.03.39-.13l.04-.05c.55-1.13,1.79-4,1.88-5.17v-.05l-.02-.04c-.42-.62.77-2.6,1.22-3.35.16-.26.67-.4,1.04-.5.15-.04.28-.08.38-.11,1.21-.4,3.12-.8,4.46-1.05-1.06,2.06-2.22,5.71-2.22,5.91-.06,1.26.49,2.7,1.38,3.66.72.78,1.62,1.21,2.6,1.24h.07c1,0,2.93-1.76,3.16-1.96l.06-.07c.76-.79,1.33-1.42,1.78-1.92-.44,1.37-.89,2.77-1.21,3.77l-.37,1.14s-.95,2.74-1.39,3.91c-33.76-.69-64.53.34-85.05,1.39-.61.02-1.22.05-1.83.07-2.34.13-4.67.25-6.99.38-5.43.26-10.7.66-15.92,1.1-.76.06-1.16.09-1.16.09h0c-3.29.29-6.57.59-9.84.9-4.42.45-8.84.9-13.33,1.36-4.48.53-9.02,1.03-13.68,1.5-1.16.12-2.48.28-3.9.48h0c-4.56.51-12.84,1.9-19.57,3.11h-.04c-.51.09-1.01.18-1.49.27h0c-1.7.32-3.25.61-4.57.86-9.07,2.04-4.13,2.19-3.7,2.17,2.89-.08,5.4-.43,8.63-.97,1.62-.27,3.41-.56,5.52-.91h-.02c13.04-2.05,46.28-6.71,91.92-9.04h0s.56-.03,1.58-.08c8.92-.44,18.3-.8,28.1-1.03,12.91-.35,28.76-.61,44.89-.48-1.48,3.76-2.05,5.27-2.05,5.4-.02.3.11.63.39.93.37.4,1.06.68,1.49.68.22,0,.38-.08.47-.12.02-.01.04-.02.06-.03l.05-.03c.19-.17.22-.4.25-.58.01-.08.02-.16.05-.22l1.1-3.22c.31-.91.59-1.84.92-2.77,14.6.16,29.31.66,42.17,1.72h.08c1.49.12,2.96.26,4.39.4,2.03.15,3.93.24,3.64-.01l-.04-.03Zm-20.65-24.6h0c.42-.75.9-1.56,1.51-2.54.06.43-.06,1.01-.34,1.59-.84,1.57-1.45,2.35-1.96,3.01-.27.34-.53.69-.76,1-.11.15-.23.3-.33.44.45-1.01,1.22-2.37,1.88-3.51h0Zm-82.09,8.43c1.21-1.97,2.82-3.39,3.53-3.73.07-.03.16-.06.17-.07.1.2.09.47-.03.79-.54,1.44-2.98,3.41-4.17,4.07.16-.37.41-.93.51-1.06h-.01Zm14.06,1.16c-.87,1.19-2.22,2.39-3.19,3.11-.43.31-.93.68-1.57,1.09,0,0-.22.12-.35,0,0,0-.02-.05-.02-.13,0-2.27,5.77-8.22,7.11-8.42.17.2.25.4.25.58,0,.73-1.98,3.5-2.23,3.76h0Z"/><path class="ee" d="m228.85,26.22h.47v2.2c0,.05,0,.1-.01.15,0,.03,0,.05-.01.08,0,.05-.02.09-.05.12-.04.05-.11.06-.18.07v.12h1.22v-.12c-.07,0-.15-.02-.18-.07-.02-.03-.04-.08-.05-.12,0-.03,0-.06-.01-.08,0-.05,0-.1-.01-.15v-2.21h.47c.23.01.41.14.56.34h.12c-.01-.17-.02-.43-.02-.58,0,0-.23.04-.83.04h-1.32c-.6,0-.83-.04-.83-.04,0,.15,0,.41-.02.58h.12c.14-.2.33-.33.56-.33Z"/><path class="ee" d="m232.13,28.97v-.12c-.14-.04-.18-.11-.18-.28,0-.05,0-.13.01-.2l.22-1.97.97,2.58h.1l.91-2.56.22,1.97c0,.08.01.15.01.21,0,.15-.03.22-.19.25v.12h1.18v-.12c-.2-.04-.23-.17-.26-.46l-.2-1.74v-.16c0-.19.04-.31.21-.35v-.12h-1.05l-.62,1.8-.64-1.8h-1.08v.12c.16.05.21.16.21.35v.16l-.23,1.77c-.03.25-.09.39-.26.44v.12h.7-.03Z"/><path class="ee" d="m10.31,21.55c-.21,1.92-.48,4.92-.48,6.51,0,.39.61,5.06,2.26,5.06.98,0,4.09-4.2,7.74-10.44,2.93-5.01,6.09-11.24,6.09-13.05,0-.91-.83-2.67-2.36-2.67-.43,0-.67.31-.67.6,0,.18.14.52.27.82.14.33.27.64.27.83,0,2.42-4.1,9.6-6.54,13.66l-.07.13c-.97,1.6-2.72,3.99-4.09,5.56-.09.09-.2.12-.3.08-.14-.05-.24-.21-.25-.39-.07-.58-.1-1.21-.1-1.47,0-4.03,1.47-9.42,2.18-12.01.19-.7.34-1.25.34-1.35,0-.41-.82-1.29-1.44-1.53,0,0-.3-.16-.56-.04-.21.09-.35.36-.56.95-.57,1.59-1.42,3.09-2.2,4.58-.88,1.7-1.83,3.38-2.84,5.01-.67,1.09-1.34,2.22-2.13,3.23-.75.97-1.31,1.64-1.98,1.64-.37,0-.46-1.04-.27-2.71.25-2.14.35-2.48.77-5.07.39-2.36.93-4.91,1.43-8.59.03-.25.13-.5.09-.76-.06-.45-.28-.77-.62-1.07-.43-.38-.94-.73-1.49-.92,0,0-.55-.15-.76.13-.78,1.06.2,1.1.19,2.28,0,.38-.89,5.48-1.2,7.33C.64,20.23-.07,25.5,0,27.51c.13,1.2,1.01,3.42,1.89,3.42.98,0,4.09-2.03,7.74-8.28.22-.37.43-.76.65-1.14l.02.04Z"/></g></g></svg>
